<svg xmlns="http://www.w3.org/2000/svg" width="21" height="21" viewBox="0 0 21 21"><defs><style>.a{fill:#707070;}</style></defs><path class="a" d="M0,16.624v1.751C0,19.823,3.527,21,7.875,21s7.875-1.177,7.875-2.625V16.624c-1.694,1.194-4.791,1.751-7.875,1.751S1.694,17.817,0,16.624ZM13.125,5.25C17.473,5.25,21,4.073,21,2.625S17.473,0,13.125,0,5.25,1.177,5.25,2.625,8.777,5.25,13.125,5.25ZM0,12.321v2.116c0,1.448,3.527,2.625,7.875,2.625s7.875-1.177,7.875-2.625V12.321c-1.694,1.395-4.795,2.116-7.875,2.116S1.694,13.716,0,12.321Zm17.063.451C19.413,12.317,21,11.472,21,10.5V8.749a10.072,10.072,0,0,1-3.937,1.415ZM7.875,6.563C3.527,6.563,0,8.031,0,9.844s3.527,3.281,7.875,3.281,7.875-1.468,7.875-3.281S12.223,6.563,7.875,6.563ZM16.87,8.872C19.331,8.429,21,7.559,21,6.563V4.811c-1.456,1.029-3.958,1.583-6.591,1.714A4.593,4.593,0,0,1,16.87,8.872Z"/></svg>