<svg xmlns="http://www.w3.org/2000/svg" width="26.25" height="21" viewBox="0 0 26.25 21"><defs><style>.a{fill:#f2f2f2;}</style></defs><path class="a" d="M21.656,18.375H4.594a.658.658,0,0,0-.656.656v1.313A.658.658,0,0,0,4.594,21H21.656a.658.658,0,0,0,.656-.656V19.031A.658.658,0,0,0,21.656,18.375ZM24.281,5.25a1.969,1.969,0,0,0-1.969,1.969,1.929,1.929,0,0,0,.18.812l-2.97,1.78a1.311,1.311,0,0,1-1.813-.476L14.368,3.486a1.969,1.969,0,1,0-2.486,0L8.539,9.335a1.312,1.312,0,0,1-1.813.476L3.761,8.031A1.968,1.968,0,1,0,1.969,9.188a2.01,2.01,0,0,0,.316-.033L5.25,17.063H21l2.965-7.908a2.011,2.011,0,0,0,.316.033,1.969,1.969,0,0,0,0-3.937Z"/></svg>