<svg xmlns="http://www.w3.org/2000/svg" width="40" height="40.645" viewBox="0 0 40 40.645"><defs><style>.a{fill:#fff;}</style></defs><path class="a" d="M39.613,4.363a20,20,0,1,1-23.242.008,1.941,1.941,0,0,1,2.823.621l1.274,2.266a1.935,1.935,0,0,1-.532,2.5A13.547,13.547,0,1,0,36.056,9.75a1.924,1.924,0,0,1-.524-2.492l1.274-2.266a1.933,1.933,0,0,1,2.806-.629ZM31.226,21.29V1.935A1.931,1.931,0,0,0,29.29,0H26.71a1.931,1.931,0,0,0-1.935,1.935V21.29a1.931,1.931,0,0,0,1.935,1.935H29.29A1.931,1.931,0,0,0,31.226,21.29Z" transform="translate(-8)"/></svg>