<svg xmlns="http://www.w3.org/2000/svg" width="23.48" height="16.039" viewBox="0 0 23.48 16.039"><defs><style>.a{fill:#707070;}</style></defs><path class="a" d="M22.786,65.983l.631,10.4-.459-.011A7.776,7.776,0,0,0,18.67,77.54a8.074,8.074,0,0,0-4.288-1.169,12.881,12.881,0,0,0-5.159,1.158L10.53,66.74a10.339,10.339,0,0,1,3.852-.757A5.646,5.646,0,0,1,18.67,67.76,5.6,5.6,0,0,1,22.786,65.983ZM30.41,80.039a6.867,6.867,0,0,1-2.946-.653,10.763,10.763,0,0,0-4.506-1.043,5.906,5.906,0,0,0-4.288,1.7,5.906,5.906,0,0,0-4.288-1.7,10.763,10.763,0,0,0-4.506,1.043,7,7,0,0,1-2.889.653H6.93L8.707,65.456A11.493,11.493,0,0,1,14.233,64a7.766,7.766,0,0,1,4.437,1.215A7.766,7.766,0,0,1,23.107,64a11.493,11.493,0,0,1,5.526,1.456ZM28.6,78.17,27.177,66.465a10.477,10.477,0,0,0-4.219-.894,6.1,6.1,0,0,0-4.288,1.617,6.1,6.1,0,0,0-4.288-1.617,10.477,10.477,0,0,0-4.219.894L8.741,78.17a13.565,13.565,0,0,1,5.641-1.4A7.787,7.787,0,0,1,18.67,78.01a7.787,7.787,0,0,1,4.288-1.238,13.565,13.565,0,0,1,5.641,1.4Z" transform="translate(-6.93 -64)"/></svg>